# MagicaVoxel @ Ephtracy

# group
o 

# material
mtllib PlayerLeft.mtl
usemtl palette

# normals
vn -1 0 0
vn 1 0 0
vn 0 0 1
vn 0 0 -1
vn 0 -1 0
vn 0 1 0

# texcoords
vt 0.0332031 0.5
vt 0.0644531 0.5
vt 0.685547 0.5
vt 0.779297 0.5
vt 0.841797 0.5
vt 0.845703 0.5
vt 0.958984 0.5
vt 0.962891 0.5
vt 0.994141 0.5

# verts
v -0.6 0.7 0.6
v -0.6 0.7 0.5
v -0.6 0.7 -0.1
v -0.6 0.8 0.8
v -0.6 0.8 0.6
v -0.6 0.8 0.5
v -0.6 0.8 -0.1
v -0.6 0.9 0.8
v -0.6 0.9 0.6
v -0.6 0.9 0.5
v -0.6 0.9 -0.1
v -0.6 1 0.5
v -0.6 1 -0.1
v -0.6 1.1 0.8
v -0.6 1.1 0.6
v -0.6 1.1 0.5
v -0.5 0 0.4
v -0.5 0 0.1
v -0.5 0.1 0.4
v -0.5 0.1 0.3
v -0.5 0.1 0.1
v -0.5 0.3 0.3
v -0.5 0.3 0.1
v -0.5 0.3 -0.2
v -0.5 0.4 0.2
v -0.5 0.4 0.1
v -0.5 0.4 -5.96046e-08
v -0.5 0.4 -0.1
v -0.5 0.7 0.3
v -0.5 0.7 0.2
v -0.5 0.7 0.1
v -0.5 0.7 -5.96046e-08
v -0.5 0.7 -0.1
v -0.5 0.8 -0.1
v -0.5 0.9 -0.1
v -0.5 1 -0.1
v -0.5 1 -0.2
v -0.5 1.4 0.5
v -0.5 1.4 -0.3
v -0.5 1.8 0.5
v -0.5 1.8 -0.3
v -0.4 1 0.5
v -0.4 1 0.3
v -0.4 1 0.2
v -0.4 1 0.1
v -0.4 1 -0.1
v -0.4 1 -0.2
v -0.4 1.4 0.5
v -0.4 1.4 -0.2
v -0.4 1.5 0.8
v -0.4 1.5 0.5
v -0.4 1.6 0.8
v -0.4 1.6 0.5
v -0.3 0.5 -0.2
v -0.3 0.5 -0.5
v -0.3 1 -0.2
v -0.3 1 -0.5
v -0.2 0.5 -0.5
v -0.2 0.5 -0.6
v -0.2 1 -0.5
v -0.2 1 -0.6
v -0.0999999 1.1 0.6
v -0.0999999 1.1 0.5
v -0.0999999 1.2 0.6
v -0.0999999 1.2 0.5
v 0.1 0.3 0.3
v 0.1 0.3 -0.2
v 0.1 0.4 0.3
v 0.1 0.4 0.2
v 0.1 0.4 -0.2
v 0.2 0.1 0.6
v 0.2 0.1 0.5
v 0.2 0.1 0.2
v 0.2 0.3 0.5
v 0.2 0.3 0.3
v 0.2 0.3 0.2
v 0.2 0.4 0.6
v 0.2 0.4 0.5
v 0.4 1.5 0.4
v 0.4 1.5 -0.2
v 0.4 1.6 0.4
v 0.4 1.6 -0.2
v 0.5 0.4 0.4
v 0.5 0.4 0.3
v 0.5 0.6 0.4
v 0.5 0.6 0.3
v -0.5 0.7 0.6
v -0.5 0.7 0.5
v -0.5 0.7 0.3
v -0.5 0.8 0.6
v -0.5 0.8 0.5
v -0.5 0.8 0.3
v -0.5 0.9 0.6
v -0.5 0.9 0.5
v -0.5 0.9 0.3
v -0.5 1 0.5
v -0.5 1 0.3
v -0.5 1.1 0.6
v -0.5 1.1 0.5
v -0.4 1.5 0.4
v -0.4 1.5 -0.2
v -0.4 1.6 0.4
v -0.4 1.6 -0.2
v -0.3 0.8 0.8
v -0.3 0.8 0.6
v -0.3 0.9 0.8
v -0.3 0.9 0.6
v -0.3 1.1 0.8
v -0.3 1.1 0.6
v -0.2 0 0.4
v -0.2 0 0.1
v -0.2 0.1 0.4
v -0.2 0.1 0.3
v -0.2 0.1 0.1
v -0.2 0.3 0.3
v -0.2 0.3 0.1
v -0.0999999 0.3 0.3
v -0.0999999 0.3 -0.2
v -0.0999999 0.4 0.3
v -0.0999999 0.4 0.2
v -0.0999999 0.4 -0.2
v 0.1 1.1 0.6
v 0.1 1.1 0.5
v 0.1 1.2 0.6
v 0.1 1.2 0.5
v 0.2 0.5 -0.5
v 0.2 0.5 -0.6
v 0.2 1 -0.5
v 0.2 1 -0.6
v 0.3 0.5 -0.2
v 0.3 0.5 -0.5
v 0.3 1 -0.2
v 0.3 1 -0.5
v 0.4 1 0.5
v 0.4 1 0.3
v 0.4 1 0.2
v 0.4 1 0.1
v 0.4 1 -5.96046e-08
v 0.4 1 -0.1
v 0.4 1 -0.2
v 0.4 1.4 0.5
v 0.4 1.4 -0.2
v 0.4 1.5 0.8
v 0.4 1.5 0.5
v 0.4 1.6 0.8
v 0.4 1.6 0.5
v 0.5 0.1 0.6
v 0.5 0.1 0.5
v 0.5 0.1 0.2
v 0.5 0.3 0.5
v 0.5 0.3 0.3
v 0.5 0.3 0.2
v 0.5 0.3 -0.2
v 0.5 0.4 0.6
v 0.5 0.4 0.5
v 0.5 0.4 0.3
v 0.5 0.4 0.2
v 0.5 0.4 0.1
v 0.5 0.4 -5.96046e-08
v 0.5 0.4 -0.1
v 0.5 0.6 0.3
v 0.5 0.6 0.2
v 0.5 1 0.3
v 0.5 1 0.2
v 0.5 1 -0.1
v 0.5 1 -0.2
v 0.5 1.4 0.5
v 0.5 1.4 -0.3
v 0.5 1.8 0.5
v 0.5 1.8 -0.3
v 0.6 0.4 0.4
v 0.6 0.4 0.2
v 0.6 0.4 0.1
v 0.6 0.4 -5.96046e-08
v 0.6 0.4 -0.1
v 0.6 0.6 0.4
v 0.6 0.6 0.2
v 0.6 1 0.2
v 0.6 1 0.1
v 0.6 1 -5.96046e-08
v 0.6 1 -0.1
v -0.6 0.8 0.8
v -0.6 0.9 0.8
v -0.6 1.1 0.8
v -0.5 0.9 0.8
v -0.5 1 0.8
v -0.4 0.9 0.8
v -0.4 1 0.8
v -0.4 1.5 0.8
v -0.4 1.6 0.8
v -0.3 0.8 0.8
v -0.3 0.9 0.8
v -0.3 1.1 0.8
v 0.4 1.5 0.8
v 0.4 1.6 0.8
v -0.6 0.7 0.6
v -0.6 0.8 0.6
v -0.5 0.7 0.6
v -0.5 0.8 0.6
v -0.0999999 1.1 0.6
v -0.0999999 1.2 0.6
v 0.1 1.1 0.6
v 0.1 1.2 0.6
v 0.2 0.1 0.6
v 0.2 0.4 0.6
v 0.5 0.1 0.6
v 0.5 0.4 0.6
v -0.5 1.4 0.5
v -0.5 1.8 0.5
v -0.4 1 0.5
v -0.4 1.4 0.5
v -0.4 1.5 0.5
v -0.4 1.6 0.5
v -0.3 1.2 0.5
v -0.3 1.4 0.5
v -0.3 1.6 0.5
v -0.3 1.8 0.5
v -0.2 1.6 0.5
v -0.2 1.8 0.5
v -0.0999999 1.1 0.5
v -0.0999999 1.2 0.5
v -0.0999999 1.4 0.5
v -0.0999999 1.6 0.5
v -0.0999999 1.7 0.5
v 0.1 1.1 0.5
v 0.1 1.2 0.5
v 0.1 1.4 0.5
v 0.1 1.6 0.5
v 0.1 1.7 0.5
v 0.2 1.6 0.5
v 0.2 1.8 0.5
v 0.3 1.2 0.5
v 0.3 1.4 0.5
v 0.3 1.6 0.5
v 0.3 1.8 0.5
v 0.4 1 0.5
v 0.4 1.4 0.5
v 0.4 1.5 0.5
v 0.4 1.6 0.5
v 0.5 1.4 0.5
v 0.5 1.8 0.5
v -0.5 0 0.4
v -0.5 0.1 0.4
v -0.2 0 0.4
v -0.2 0.1 0.4
v 0.5 0.4 0.4
v 0.5 0.6 0.4
v 0.6 0.4 0.4
v 0.6 0.6 0.4
v -0.5 0.1 0.3
v -0.5 0.3 0.3
v -0.5 0.7 0.3
v -0.5 0.8 0.3
v -0.5 0.9 0.3
v -0.5 1 0.3
v -0.4 0.1 0.3
v -0.4 0.3 0.3
v -0.4 1 0.3
v -0.3 0.1 0.3
v -0.3 0.3 0.3
v -0.3 0.8 0.3
v -0.3 1 0.3
v -0.2 0.1 0.3
v -0.2 0.3 0.3
v -0.2 0.4 0.3
v -0.2 0.8 0.3
v -0.0999999 0.3 0.3
v -0.0999999 0.4 0.3
v 0.1 0.3 0.3
v 0.1 0.4 0.3
v 0.2 0.3 0.3
v 0.2 0.4 0.3
v 0.2 0.8 0.3
v 0.3 0.3 0.3
v 0.3 0.8 0.3
v 0.3 1 0.3
v 0.4 0.3 0.3
v 0.4 1 0.3
v 0.5 0.3 0.3
v 0.5 0.4 0.3
v 0.5 0.6 0.3
v 0.5 1 0.3
v 0.5 0.6 0.2
v 0.5 1 0.2
v 0.6 0.6 0.2
v 0.6 1 0.2
v -0.4 1.5 -0.2
v -0.4 1.6 -0.2
v -0.3 1.6 -0.2
v -0.0999999 1.6 -0.2
v 0.1 1.6 -0.2
v 0.3 1.6 -0.2
v 0.4 1.5 -0.2
v 0.4 1.6 -0.2
v -0.5 0.8 0.6
v -0.5 0.9 0.6
v -0.5 1.1 0.6
v -0.3 0.8 0.6
v -0.3 0.9 0.6
v -0.3 1.1 0.6
v -0.6 1 0.5
v -0.6 1.1 0.5
v -0.5 1 0.5
v -0.5 1.1 0.5
v 0.2 0.3 0.5
v 0.2 0.4 0.5
v 0.3 0.3 0.5
v 0.4 0.3 0.5
v 0.5 0.3 0.5
v 0.5 0.4 0.5
v -0.4 1.5 0.4
v -0.4 1.6 0.4
v -0.3 1.5 0.4
v -0.3 1.6 0.4
v -0.0999999 1.6 0.4
v 0.1 1.6 0.4
v 0.3 1.5 0.4
v 0.3 1.6 0.4
v 0.4 1.5 0.4
v 0.4 1.6 0.4
v 0.2 0.1 0.2
v 0.2 0.3 0.2
v 0.3 0.1 0.2
v 0.3 0.2 0.2
v 0.4 0.1 0.2
v 0.4 0.2 0.2
v 0.5 0.1 0.2
v 0.5 0.3 0.2
v -0.5 0 0.1
v -0.5 0.1 0.1
v -0.5 0.3 0.1
v -0.4 0.1 0.1
v -0.4 0.3 0.1
v -0.3 0.1 0.1
v -0.3 0.3 0.1
v -0.2 0 0.1
v -0.2 0.1 0.1
v -0.2 0.3 0.1
v -0.6 0.7 -0.1
v -0.6 0.8 -0.1
v -0.6 0.9 -0.1
v -0.6 1 -0.1
v -0.5 0.7 -0.1
v -0.5 0.8 -0.1
v -0.5 0.9 -0.1
v -0.5 1 -0.1
v 0.5 0.4 -0.1
v 0.5 1 -0.1
v 0.6 0.4 -0.1
v 0.6 1 -0.1
v -0.5 0.3 -0.2
v -0.5 1 -0.2
v -0.4 1 -0.2
v -0.4 1.4 -0.2
v -0.3 0.5 -0.2
v -0.3 1 -0.2
v -0.0999999 0.3 -0.2
v -0.0999999 0.4 -0.2
v -0.0999999 0.5 -0.2
v 0.1 0.3 -0.2
v 0.1 0.4 -0.2
v 0.1 0.5 -0.2
v 0.1 1 -0.2
v 0.2 0.5 -0.2
v 0.2 1 -0.2
v 0.3 0.5 -0.2
v 0.3 1 -0.2
v 0.4 1 -0.2
v 0.4 1.4 -0.2
v 0.5 0.3 -0.2
v 0.5 1 -0.2
v -0.5 1.4 -0.3
v -0.5 1.8 -0.3
v -0.3 1.6 -0.3
v -0.3 1.8 -0.3
v -0.0999999 1.6 -0.3
v -0.0999999 1.8 -0.3
v 0.1 1.6 -0.3
v 0.1 1.8 -0.3
v 0.3 1.6 -0.3
v 0.3 1.8 -0.3
v 0.5 1.4 -0.3
v 0.5 1.8 -0.3
v -0.3 0.5 -0.5
v -0.3 1 -0.5
v -0.2 0.5 -0.5
v -0.2 1 -0.5
v 0.2 0.5 -0.5
v 0.2 1 -0.5
v 0.3 0.5 -0.5
v 0.3 1 -0.5
v -0.2 0.5 -0.6
v -0.2 1 -0.6
v 0.1 0.5 -0.6
v 0.1 1 -0.6
v 0.2 0.5 -0.6
v 0.2 1 -0.6
v -0.5 0 0.4
v -0.2 0 0.4
v -0.5 0 0.1
v -0.2 0 0.1
v 0.2 0.1 0.6
v 0.5 0.1 0.6
v 0.2 0.1 0.5
v 0.3 0.1 0.5
v 0.4 0.1 0.5
v 0.5 0.1 0.5
v 0.2 0.1 0.2
v 0.3 0.1 0.2
v 0.4 0.1 0.2
v 0.5 0.1 0.2
v -0.2 0.3 0.3
v -0.0999999 0.3 0.3
v 0.1 0.3 0.3
v 0.2 0.3 0.3
v 0.2 0.3 0.2
v 0.5 0.3 0.2
v -0.5 0.3 0.1
v -0.4 0.3 0.1
v -0.3 0.3 0.1
v -0.2 0.3 0.1
v -0.5 0.3 -0.2
v -0.0999999 0.3 -0.2
v 0.1 0.3 -0.2
v 0.5 0.3 -0.2
v 0.5 0.4 0.4
v 0.6 0.4 0.4
v -0.0999999 0.4 0.3
v 0.1 0.4 0.3
v 0.5 0.4 0.3
v -0.0999999 0.4 0.2
v 0.1 0.4 0.2
v 0.5 0.4 0.2
v 0.6 0.4 0.2
v 0.5 0.4 0.1
v 0.6 0.4 0.1
v 0.5 0.4 -5.96046e-08
v 0.6 0.4 -5.96046e-08
v 0.5 0.4 -0.1
v 0.6 0.4 -0.1
v -0.0999999 0.4 -0.2
v 0.1 0.4 -0.2
v -0.3 0.5 -0.2
v -0.0999999 0.5 -0.2
v 0.1 0.5 -0.2
v 0.2 0.5 -0.2
v 0.3 0.5 -0.2
v -0.3 0.5 -0.5
v -0.2 0.5 -0.5
v 0.2 0.5 -0.5
v 0.3 0.5 -0.5
v -0.2 0.5 -0.6
v 0.1 0.5 -0.6
v 0.2 0.5 -0.6
v -0.6 0.7 0.6
v -0.5 0.7 0.6
v -0.6 0.7 0.5
v -0.5 0.7 0.5
v -0.5 0.7 0.3
v -0.5 0.7 0.2
v -0.5 0.7 0.1
v -0.5 0.7 -5.96046e-08
v -0.6 0.7 -0.1
v -0.5 0.7 -0.1
v -0.6 0.8 0.8
v -0.3 0.8 0.8
v -0.6 0.8 0.6
v -0.5 0.8 0.6
v -0.3 0.8 0.6
v -0.4 1 0.5
v 0.4 1 0.5
v -0.3 1 0.4
v 0.3 1 0.4
v -0.4 1 0.3
v -0.3 1 0.3
v 0.3 1 0.3
v 0.4 1 0.3
v -0.0999999 1.1 0.6
v 0.1 1.1 0.6
v -0.0999999 1.1 0.5
v 0.1 1.1 0.5
v -0.5 1.4 0.5
v -0.4 1.4 0.5
v 0.4 1.4 0.5
v 0.5 1.4 0.5
v -0.4 1.4 -0.2
v 0.4 1.4 -0.2
v -0.5 1.4 -0.3
v 0.5 1.4 -0.3
v -0.4 1.5 0.8
v 0.4 1.5 0.8
v -0.4 1.5 0.5
v 0.4 1.5 0.5
v -0.4 1.6 0.4
v -0.3 1.6 0.4
v -0.0999999 1.6 0.4
v 0.1 1.6 0.4
v 0.3 1.6 0.4
v 0.4 1.6 0.4
v -0.4 1.6 -0.2
v -0.3 1.6 -0.2
v -0.0999999 1.6 -0.2
v 0.1 1.6 -0.2
v 0.3 1.6 -0.2
v 0.4 1.6 -0.2
v -0.5 0.1 0.4
v -0.2 0.1 0.4
v -0.5 0.1 0.3
v -0.4 0.1 0.3
v -0.3 0.1 0.3
v -0.2 0.1 0.3
v 0.2 0.3 0.5
v 0.3 0.3 0.5
v 0.4 0.3 0.5
v 0.5 0.3 0.5
v 0.2 0.3 0.3
v 0.3 0.3 0.3
v 0.4 0.3 0.3
v 0.5 0.3 0.3
v 0.2 0.4 0.6
v 0.5 0.4 0.6
v 0.2 0.4 0.5
v 0.5 0.4 0.5
v 0.5 0.6 0.4
v 0.6 0.6 0.4
v 0.5 0.6 0.3
v 0.5 0.6 0.2
v 0.6 0.6 0.2
v -0.6 1 0.5
v -0.5 1 0.5
v -0.5 1 0.3
v -0.4 1 0.3
v 0.4 1 0.3
v 0.5 1 0.3
v -0.5 1 0.2
v -0.4 1 0.2
v 0.4 1 0.2
v 0.5 1 0.2
v 0.6 1 0.2
v -0.5 1 0.1
v -0.4 1 0.1
v 0.4 1 0.1
v 0.6 1 0.1
v 0.4 1 -5.96046e-08
v 0.6 1 -5.96046e-08
v -0.6 1 -0.1
v -0.5 1 -0.1
v -0.4 1 -0.1
v 0.4 1 -0.1
v 0.5 1 -0.1
v 0.6 1 -0.1
v -0.5 1 -0.2
v -0.4 1 -0.2
v -0.3 1 -0.2
v 0.1 1 -0.2
v 0.2 1 -0.2
v 0.3 1 -0.2
v 0.4 1 -0.2
v 0.5 1 -0.2
v -0.3 1 -0.5
v -0.2 1 -0.5
v 0.2 1 -0.5
v 0.3 1 -0.5
v -0.2 1 -0.6
v 0.1 1 -0.6
v 0.2 1 -0.6
v -0.6 1.1 0.8
v -0.3 1.1 0.8
v -0.6 1.1 0.6
v -0.5 1.1 0.6
v -0.3 1.1 0.6
v -0.6 1.1 0.5
v -0.5 1.1 0.5
v -0.0999999 1.2 0.6
v 0.1 1.2 0.6
v -0.0999999 1.2 0.5
v 0.1 1.2 0.5
v -0.4 1.5 0.4
v -0.3 1.5 0.4
v 0.3 1.5 0.4
v 0.4 1.5 0.4
v -0.4 1.5 -0.2
v 0.4 1.5 -0.2
v -0.4 1.6 0.8
v 0.4 1.6 0.8
v -0.4 1.6 0.5
v -0.3 1.6 0.5
v -0.2 1.6 0.5
v -0.0999999 1.6 0.5
v 0.1 1.6 0.5
v 0.2 1.6 0.5
v 0.3 1.6 0.5
v 0.4 1.6 0.5
v -0.5 1.8 0.5
v -0.3 1.8 0.5
v -0.2 1.8 0.5
v 0.2 1.8 0.5
v 0.3 1.8 0.5
v 0.5 1.8 0.5
v -0.2 1.8 0.4
v -0.0999999 1.8 0.4
v 0.1 1.8 0.4
v 0.2 1.8 0.4
v -0.5 1.8 -0.3
v -0.3 1.8 -0.3
v -0.0999999 1.8 -0.3
v 0.1 1.8 -0.3
v 0.3 1.8 -0.3
v 0.5 1.8 -0.3

# faces
f 5/1/1 2/1/1 1/1/1
f 6/3/1 3/3/1 2/3/1
f 6/1/1 2/1/1 5/1/1
f 7/3/1 3/3/1 6/3/1
f 8/7/1 5/7/1 4/7/1
f 9/1/1 6/1/1 5/1/1
f 9/7/1 5/7/1 8/7/1
f 10/4/1 7/4/1 6/4/1
f 10/1/1 6/1/1 9/1/1
f 11/4/1 7/4/1 10/4/1
f 12/1/1 10/1/1 9/1/1
f 12/3/1 11/3/1 10/3/1
f 13/3/1 11/3/1 12/3/1
f 14/5/1 9/5/1 8/5/1
f 15/1/1 12/1/1 9/1/1
f 15/5/1 9/5/1 14/5/1
f 16/1/1 12/1/1 15/1/1
f 19/3/1 18/3/1 17/3/1
f 20/3/1 18/3/1 19/3/1
f 21/3/1 18/3/1 20/3/1
f 22/9/1 21/9/1 20/9/1
f 23/9/1 21/9/1 22/9/1
f 25/6/1 23/6/1 22/6/1
f 25/6/1 24/6/1 23/6/1
f 26/6/1 24/6/1 25/6/1
f 27/6/1 24/6/1 26/6/1
f 28/6/1 24/6/1 27/6/1
f 29/6/1 25/6/1 22/6/1
f 30/3/1 26/3/1 25/3/1
f 30/6/1 25/6/1 29/6/1
f 31/4/1 27/4/1 26/4/1
f 31/3/1 26/3/1 30/3/1
f 32/3/1 28/3/1 27/3/1
f 32/4/1 27/4/1 31/4/1
f 33/6/1 24/6/1 28/6/1
f 33/3/1 28/3/1 32/3/1
f 34/6/1 24/6/1 33/6/1
f 35/6/1 24/6/1 34/6/1
f 36/6/1 24/6/1 35/6/1
f 37/6/1 24/6/1 36/6/1
f 40/5/1 39/5/1 38/5/1
f 41/5/1 39/5/1 40/5/1
f 48/1/1 43/1/1 42/1/1
f 48/1/1 47/1/1 46/1/1
f 48/1/1 46/1/1 45/1/1
f 48/1/1 45/1/1 44/1/1
f 48/1/1 44/1/1 43/1/1
f 49/1/1 47/1/1 48/1/1
f 52/5/1 51/5/1 50/5/1
f 53/5/1 51/5/1 52/5/1
f 56/2/1 55/2/1 54/2/1
f 57/2/1 55/2/1 56/2/1
f 60/2/1 59/2/1 58/2/1
f 61/2/1 59/2/1 60/2/1
f 64/1/1 63/1/1 62/1/1
f 65/1/1 63/1/1 64/1/1
f 68/6/1 67/6/1 66/6/1
f 69/6/1 67/6/1 68/6/1
f 70/6/1 67/6/1 69/6/1
f 74/3/1 72/3/1 71/3/1
f 74/9/1 73/9/1 72/9/1
f 75/9/1 73/9/1 74/9/1
f 76/9/1 73/9/1 75/9/1
f 77/3/1 74/3/1 71/3/1
f 78/3/1 74/3/1 77/3/1
f 81/5/1 80/5/1 79/5/1
f 82/5/1 80/5/1 81/5/1
f 85/1/1 84/1/1 83/1/1
f 86/1/1 84/1/1 85/1/1
f 87/1/2 88/1/2 90/1/2
f 88/3/2 89/3/2 91/3/2
f 90/1/2 88/1/2 91/1/2
f 91/3/2 89/3/2 92/3/2
f 90/1/2 91/1/2 93/1/2
f 91/4/2 92/4/2 94/4/2
f 93/1/2 91/1/2 94/1/2
f 94/4/2 92/4/2 95/4/2
f 93/1/2 94/1/2 96/1/2
f 94/3/2 95/3/2 96/3/2
f 96/3/2 95/3/2 97/3/2
f 93/1/2 96/1/2 98/1/2
f 98/1/2 96/1/2 99/1/2
f 100/5/2 101/5/2 102/5/2
f 102/5/2 101/5/2 103/5/2
f 104/7/2 105/7/2 106/7/2
f 106/7/2 105/7/2 107/7/2
f 106/5/2 107/5/2 108/5/2
f 108/5/2 107/5/2 109/5/2
f 110/3/2 111/3/2 112/3/2
f 112/3/2 111/3/2 113/3/2
f 113/3/2 111/3/2 114/3/2
f 113/9/2 114/9/2 115/9/2
f 115/9/2 114/9/2 116/9/2
f 117/6/2 118/6/2 119/6/2
f 119/6/2 118/6/2 120/6/2
f 120/6/2 118/6/2 121/6/2
f 122/1/2 123/1/2 124/1/2
f 124/1/2 123/1/2 125/1/2
f 126/9/2 127/9/2 128/9/2
f 128/9/2 127/9/2 129/9/2
f 130/2/2 131/2/2 132/2/2
f 132/2/2 131/2/2 133/2/2
f 134/1/2 135/1/2 141/1/2
f 139/1/2 140/1/2 141/1/2
f 138/1/2 139/1/2 141/1/2
f 137/1/2 138/1/2 141/1/2
f 136/1/2 137/1/2 141/1/2
f 135/1/2 136/1/2 141/1/2
f 141/1/2 140/1/2 142/1/2
f 143/5/2 144/5/2 145/5/2
f 145/5/2 144/5/2 146/5/2
f 147/3/2 148/3/2 150/3/2
f 148/9/2 149/9/2 150/9/2
f 150/9/2 149/9/2 151/9/2
f 151/9/2 149/9/2 152/9/2
f 147/3/2 150/3/2 154/3/2
f 154/3/2 150/3/2 155/3/2
f 152/6/2 153/6/2 156/6/2
f 151/6/2 152/6/2 156/6/2
f 156/6/2 153/6/2 157/6/2
f 157/6/2 153/6/2 158/6/2
f 158/6/2 153/6/2 159/6/2
f 159/6/2 153/6/2 160/6/2
f 161/6/2 162/6/2 163/6/2
f 163/6/2 162/6/2 164/6/2
f 160/6/2 153/6/2 165/6/2
f 165/6/2 153/6/2 166/6/2
f 167/5/2 168/5/2 169/5/2
f 169/5/2 168/5/2 170/5/2
f 171/1/2 172/1/2 176/1/2
f 172/3/2 173/3/2 177/3/2
f 176/1/2 172/1/2 177/1/2
f 177/3/2 173/3/2 178/3/2
f 173/4/2 174/4/2 179/4/2
f 178/3/2 173/3/2 179/3/2
f 174/3/2 175/3/2 180/3/2
f 179/4/2 174/4/2 180/4/2
f 180/3/2 175/3/2 181/3/2
f 185/7/3 183/7/3 182/7/3
f 185/5/3 184/5/3 183/5/3
f 186/5/3 184/5/3 185/5/3
f 187/7/3 185/7/3 182/7/3
f 187/9/3 186/9/3 185/9/3
f 188/5/3 184/5/3 186/5/3
f 188/9/3 186/9/3 187/9/3
f 191/7/3 187/7/3 182/7/3
f 192/5/3 188/5/3 187/5/3
f 192/7/3 187/7/3 191/7/3
f 193/5/3 184/5/3 188/5/3
f 193/5/3 188/5/3 192/5/3
f 194/5/3 190/5/3 189/5/3
f 195/5/3 190/5/3 194/5/3
f 198/1/3 197/1/3 196/1/3
f 199/1/3 197/1/3 198/1/3
f 202/1/3 201/1/3 200/1/3
f 203/1/3 201/1/3 202/1/3
f 206/3/3 205/3/3 204/3/3
f 207/3/3 205/3/3 206/3/3
f 211/5/3 209/5/3 208/5/3
f 212/5/3 209/5/3 211/5/3
f 213/5/3 209/5/3 212/5/3
f 214/1/3 211/1/3 210/1/3
f 215/5/3 212/5/3 211/5/3
f 215/1/3 211/1/3 214/1/3
f 216/5/3 209/5/3 213/5/3
f 217/5/3 209/5/3 216/5/3
f 218/9/3 217/9/3 216/9/3
f 219/9/3 217/9/3 218/9/3
f 220/1/3 214/1/3 210/1/3
f 221/9/3 215/9/3 214/9/3
f 221/1/3 214/1/3 220/1/3
f 222/5/3 212/5/3 215/5/3
f 222/9/3 215/9/3 221/9/3
f 223/7/3 219/7/3 218/7/3
f 224/7/3 219/7/3 223/7/3
f 225/1/3 220/1/3 210/1/3
f 226/1/3 222/1/3 221/1/3
f 227/5/3 212/5/3 222/5/3
f 227/1/3 222/1/3 226/1/3
f 228/5/3 224/5/3 223/5/3
f 229/7/3 219/7/3 224/7/3
f 229/5/3 224/5/3 228/5/3
f 230/7/3 229/7/3 228/7/3
f 231/7/3 219/7/3 229/7/3
f 231/7/3 229/7/3 230/7/3
f 232/1/3 226/1/3 225/1/3
f 232/9/3 227/9/3 226/9/3
f 233/5/3 212/5/3 227/5/3
f 233/9/3 227/9/3 232/9/3
f 234/9/3 231/9/3 230/9/3
f 235/9/3 231/9/3 234/9/3
f 236/1/3 232/1/3 225/1/3
f 236/1/3 225/1/3 210/1/3
f 236/1/3 233/1/3 232/1/3
f 237/5/3 212/5/3 233/5/3
f 237/1/3 233/1/3 236/1/3
f 238/5/3 212/5/3 237/5/3
f 239/5/3 235/5/3 234/5/3
f 240/5/3 238/5/3 237/5/3
f 240/5/3 239/5/3 238/5/3
f 241/5/3 235/5/3 239/5/3
f 241/5/3 239/5/3 240/5/3
f 244/3/3 243/3/3 242/3/3
f 245/3/3 243/3/3 244/3/3
f 248/1/3 247/1/3 246/1/3
f 249/1/3 247/1/3 248/1/3
f 256/9/3 251/9/3 250/9/3
f 257/6/3 255/6/3 254/6/3
f 257/9/3 251/9/3 256/9/3
f 257/6/3 252/6/3 251/6/3
f 257/6/3 254/6/3 253/6/3
f 257/6/3 253/6/3 252/6/3
f 258/6/3 255/6/3 257/6/3
f 259/4/3 257/4/3 256/4/3
f 260/6/3 258/6/3 257/6/3
f 260/4/3 257/4/3 259/4/3
f 261/6/3 258/6/3 260/6/3
f 262/6/3 258/6/3 261/6/3
f 263/9/3 260/9/3 259/9/3
f 264/6/3 261/6/3 260/6/3
f 264/9/3 260/9/3 263/9/3
f 265/6/3 261/6/3 264/6/3
f 266/9/3 262/9/3 261/9/3
f 266/6/3 261/6/3 265/6/3
f 267/6/3 265/6/3 264/6/3
f 268/8/3 266/8/3 265/8/3
f 268/6/3 265/6/3 267/6/3
f 270/8/3 266/8/3 268/8/3
f 271/6/3 270/6/3 269/6/3
f 272/8/3 266/8/3 270/8/3
f 272/6/3 270/6/3 271/6/3
f 273/9/3 262/9/3 266/9/3
f 273/8/3 266/8/3 272/8/3
f 274/6/3 272/6/3 271/6/3
f 274/6/3 273/6/3 272/6/3
f 275/9/3 262/9/3 273/9/3
f 275/6/3 273/6/3 274/6/3
f 276/9/3 262/9/3 275/9/3
f 277/6/3 275/6/3 274/6/3
f 277/6/3 276/6/3 275/6/3
f 278/6/3 276/6/3 277/6/3
f 279/6/3 278/6/3 277/6/3
f 280/6/3 278/6/3 279/6/3
f 281/6/3 278/6/3 280/6/3
f 282/6/3 278/6/3 281/6/3
f 285/3/3 284/3/3 283/3/3
f 286/3/3 284/3/3 285/3/3
f 289/5/3 288/5/3 287/5/3
f 290/5/3 289/5/3 287/5/3
f 291/5/3 290/5/3 287/5/3
f 292/5/3 291/5/3 287/5/3
f 293/5/3 292/5/3 287/5/3
f 294/5/3 292/5/3 293/5/3
f 295/7/4 296/7/4 298/7/4
f 296/5/4 297/5/4 299/5/4
f 298/7/4 296/7/4 299/7/4
f 299/5/4 297/5/4 300/5/4
f 301/1/4 302/1/4 303/1/4
f 303/1/4 302/1/4 304/1/4
f 305/3/4 306/3/4 307/3/4
f 307/3/4 306/3/4 308/3/4
f 308/3/4 306/3/4 309/3/4
f 309/3/4 306/3/4 310/3/4
f 311/5/4 312/5/4 313/5/4
f 313/5/4 312/5/4 314/5/4
f 313/7/4 314/7/4 315/7/4
f 313/7/4 315/7/4 316/7/4
f 313/7/4 316/7/4 317/7/4
f 317/7/4 316/7/4 318/7/4
f 317/5/4 318/5/4 319/5/4
f 319/5/4 318/5/4 320/5/4
f 321/9/4 322/9/4 323/9/4
f 323/9/4 322/9/4 324/9/4
f 323/7/4 324/7/4 325/7/4
f 324/9/4 322/9/4 326/9/4
f 325/7/4 324/7/4 326/7/4
f 325/9/4 326/9/4 327/9/4
f 326/9/4 322/9/4 328/9/4
f 327/9/4 326/9/4 328/9/4
f 329/3/4 330/3/4 332/3/4
f 330/9/4 331/9/4 332/9/4
f 332/9/4 331/9/4 333/9/4
f 329/3/4 332/3/4 334/3/4
f 332/7/4 333/7/4 334/7/4
f 334/7/4 333/7/4 335/7/4
f 329/3/4 334/3/4 336/3/4
f 334/9/4 335/9/4 337/9/4
f 336/3/4 334/3/4 337/3/4
f 337/9/4 335/9/4 338/9/4
f 339/3/4 340/3/4 343/3/4
f 340/4/4 341/4/4 344/4/4
f 343/3/4 340/3/4 344/3/4
f 341/3/4 342/3/4 345/3/4
f 344/4/4 341/4/4 345/4/4
f 345/3/4 342/3/4 346/3/4
f 347/3/4 348/3/4 349/3/4
f 349/3/4 348/3/4 350/3/4
f 351/6/4 352/6/4 353/6/4
f 351/6/4 353/6/4 355/6/4
f 353/1/4 354/1/4 356/1/4
f 355/6/4 353/6/4 356/6/4
f 351/6/4 355/6/4 357/6/4
f 357/6/4 355/6/4 358/6/4
f 358/6/4 355/6/4 359/6/4
f 358/7/4 359/7/4 361/7/4
f 361/7/4 359/7/4 362/7/4
f 356/1/4 354/1/4 363/1/4
f 361/6/4 362/6/4 364/6/4
f 360/6/4 361/6/4 364/6/4
f 363/1/4 354/1/4 365/1/4
f 360/6/4 364/6/4 366/6/4
f 365/1/4 354/1/4 367/1/4
f 367/1/4 354/1/4 368/1/4
f 366/6/4 367/6/4 368/6/4
f 368/1/4 354/1/4 369/1/4
f 360/6/4 366/6/4 370/6/4
f 366/6/4 368/6/4 370/6/4
f 370/6/4 368/6/4 371/6/4
f 372/5/4 373/5/4 374/5/4
f 374/5/4 373/5/4 375/5/4
f 372/5/4 374/5/4 376/5/4
f 374/9/4 375/9/4 376/9/4
f 376/9/4 375/9/4 377/9/4
f 372/5/4 376/5/4 378/5/4
f 376/5/4 377/5/4 378/5/4
f 378/5/4 377/5/4 379/5/4
f 372/5/4 378/5/4 380/5/4
f 378/9/4 379/9/4 380/9/4
f 380/9/4 379/9/4 381/9/4
f 372/5/4 380/5/4 382/5/4
f 380/5/4 381/5/4 382/5/4
f 382/5/4 381/5/4 383/5/4
f 384/2/4 385/2/4 386/2/4
f 386/2/4 385/2/4 387/2/4
f 388/2/4 389/2/4 390/2/4
f 390/2/4 389/2/4 391/2/4
f 392/2/4 393/2/4 394/2/4
f 394/2/4 393/2/4 395/2/4
f 394/9/4 395/9/4 396/9/4
f 396/9/4 395/9/4 397/9/4
f 400/3/5 399/3/5 398/3/5
f 401/3/5 399/3/5 400/3/5
f 404/3/5 403/3/5 402/3/5
f 405/3/5 403/3/5 404/3/5
f 406/3/5 403/3/5 405/3/5
f 407/3/5 403/3/5 406/3/5
f 408/9/5 405/9/5 404/9/5
f 409/7/5 406/7/5 405/7/5
f 409/9/5 405/9/5 408/9/5
f 410/9/5 407/9/5 406/9/5
f 410/7/5 406/7/5 409/7/5
f 411/9/5 407/9/5 410/9/5
f 416/6/5 415/6/5 414/6/5
f 421/6/5 413/6/5 412/6/5
f 422/6/5 420/6/5 419/6/5
f 422/6/5 421/6/5 420/6/5
f 422/6/5 419/6/5 418/6/5
f 423/6/5 413/6/5 421/6/5
f 423/6/5 421/6/5 422/6/5
f 424/6/5 416/6/5 414/6/5
f 424/6/5 417/6/5 416/6/5
f 425/6/5 417/6/5 424/6/5
f 430/1/5 427/1/5 426/1/5
f 431/8/5 429/8/5 428/8/5
f 432/8/5 429/8/5 431/8/5
f 433/1/5 427/1/5 430/1/5
f 434/1/5 427/1/5 433/1/5
f 435/3/5 434/3/5 433/3/5
f 436/3/5 434/3/5 435/3/5
f 437/4/5 436/4/5 435/4/5
f 438/4/5 436/4/5 437/4/5
f 439/3/5 438/3/5 437/3/5
f 440/3/5 438/3/5 439/3/5
f 441/7/5 432/7/5 431/7/5
f 442/7/5 432/7/5 441/7/5
f 448/2/5 444/2/5 443/2/5
f 448/2/5 445/2/5 444/2/5
f 449/2/5 445/2/5 448/2/5
f 450/2/5 447/2/5 446/2/5
f 450/9/5 446/9/5 445/9/5
f 451/2/5 447/2/5 450/2/5
f 452/2/5 445/2/5 449/2/5
f 453/9/5 450/9/5 445/9/5
f 453/2/5 445/2/5 452/2/5
f 454/9/5 450/9/5 453/9/5
f 457/1/5 456/1/5 455/1/5
f 458/1/5 456/1/5 457/1/5
f 459/3/5 458/3/5 457/3/5
f 460/3/5 459/3/5 457/3/5
f 461/3/5 460/3/5 457/3/5
f 462/3/5 461/3/5 457/3/5
f 463/3/5 462/3/5 457/3/5
f 464/3/5 462/3/5 463/3/5
f 467/7/5 466/7/5 465/7/5
f 468/7/5 466/7/5 467/7/5
f 469/7/5 466/7/5 468/7/5
f 472/1/5 471/1/5 470/1/5
f 473/1/5 471/1/5 472/1/5
f 474/1/5 472/1/5 470/1/5
f 475/7/5 473/7/5 472/7/5
f 475/1/5 472/1/5 474/1/5
f 476/1/5 471/1/5 473/1/5
f 476/7/5 473/7/5 475/7/5
f 477/1/5 471/1/5 476/1/5
f 480/1/5 479/1/5 478/1/5
f 481/1/5 479/1/5 480/1/5
f 486/5/5 483/5/5 482/5/5
f 487/5/5 485/5/5 484/5/5
f 488/5/5 486/5/5 482/5/5
f 488/5/5 487/5/5 486/5/5
f 489/5/5 485/5/5 487/5/5
f 489/5/5 487/5/5 488/5/5
f 492/5/5 491/5/5 490/5/5
f 493/5/5 491/5/5 492/5/5
f 500/5/5 495/5/5 494/5/5
f 501/9/5 496/9/5 495/9/5
f 501/5/5 495/5/5 500/5/5
f 502/5/5 497/5/5 496/5/5
f 502/9/5 496/9/5 501/9/5
f 503/9/5 498/9/5 497/9/5
f 503/5/5 497/5/5 502/5/5
f 504/5/5 499/5/5 498/5/5
f 504/9/5 498/9/5 503/9/5
f 505/5/5 499/5/5 504/5/5
f 506/3/6 507/3/6 508/3/6
f 508/3/6 507/3/6 509/3/6
f 509/3/6 507/3/6 510/3/6
f 510/3/6 507/3/6 511/3/6
f 512/9/6 513/9/6 516/9/6
f 513/4/6 514/4/6 517/4/6
f 516/9/6 513/9/6 517/9/6
f 514/9/6 515/9/6 518/9/6
f 517/4/6 514/4/6 518/4/6
f 518/9/6 515/9/6 519/9/6
f 520/3/6 521/3/6 522/3/6
f 522/3/6 521/3/6 523/3/6
f 524/1/6 525/1/6 526/1/6
f 526/1/6 525/1/6 527/1/6
f 527/1/6 525/1/6 528/1/6
f 529/3/6 530/3/6 531/3/6
f 529/3/6 531/3/6 535/3/6
f 531/6/6 532/6/6 535/6/6
f 535/6/6 532/6/6 536/6/6
f 533/6/6 534/6/6 537/6/6
f 537/6/6 534/6/6 538/6/6
f 535/3/6 536/3/6 540/3/6
f 529/3/6 535/3/6 540/3/6
f 540/3/6 536/3/6 541/3/6
f 538/3/6 539/3/6 542/3/6
f 537/3/6 538/3/6 542/3/6
f 542/3/6 539/3/6 543/3/6
f 542/4/6 543/4/6 544/4/6
f 544/4/6 543/4/6 545/4/6
f 529/3/6 540/3/6 546/3/6
f 540/4/6 541/4/6 547/4/6
f 546/3/6 540/3/6 547/3/6
f 547/4/6 541/4/6 548/4/6
f 544/3/6 545/3/6 549/3/6
f 549/3/6 545/3/6 550/3/6
f 550/3/6 545/3/6 551/3/6
f 547/6/6 548/6/6 552/6/6
f 552/6/6 548/6/6 553/6/6
f 549/6/6 550/6/6 558/6/6
f 558/6/6 550/6/6 559/6/6
f 554/2/6 555/2/6 560/2/6
f 560/2/6 555/2/6 561/2/6
f 556/2/6 557/2/6 562/2/6
f 555/9/6 556/9/6 562/9/6
f 562/2/6 557/2/6 563/2/6
f 561/2/6 555/2/6 564/2/6
f 555/9/6 562/9/6 565/9/6
f 564/2/6 555/2/6 565/2/6
f 565/9/6 562/9/6 566/9/6
f 567/5/6 568/5/6 569/5/6
f 569/5/6 568/5/6 570/5/6
f 570/5/6 568/5/6 571/5/6
f 569/1/6 570/1/6 572/1/6
f 572/1/6 570/1/6 573/1/6
f 574/1/6 575/1/6 576/1/6
f 576/1/6 575/1/6 577/1/6
f 578/5/6 579/5/6 582/5/6
f 580/5/6 581/5/6 582/5/6
f 579/5/6 580/5/6 582/5/6
f 582/5/6 581/5/6 583/5/6
f 584/5/6 585/5/6 586/5/6
f 586/5/6 585/5/6 587/5/6
f 587/5/6 585/5/6 588/5/6
f 588/5/6 585/5/6 589/5/6
f 589/5/6 585/5/6 590/5/6
f 590/5/6 585/5/6 591/5/6
f 591/5/6 585/5/6 592/5/6
f 592/5/6 585/5/6 593/5/6
f 595/9/6 596/9/6 600/9/6
f 596/7/6 597/7/6 600/7/6
f 600/7/6 597/7/6 601/7/6
f 601/7/6 597/7/6 602/7/6
f 597/9/6 598/9/6 603/9/6
f 602/7/6 597/7/6 603/7/6
f 594/5/6 595/5/6 604/5/6
f 595/9/6 600/9/6 605/9/6
f 604/5/6 595/5/6 605/5/6
f 600/9/6 601/9/6 605/9/6
f 601/5/6 602/5/6 606/5/6
f 605/9/6 601/9/6 606/9/6
f 602/9/6 603/9/6 607/9/6
f 606/5/6 602/5/6 607/5/6
f 603/9/6 598/9/6 608/9/6
f 607/9/6 603/9/6 608/9/6
f 598/5/6 599/5/6 608/5/6
f 608/5/6 599/5/6 609/5/6
