# MagicaVoxel @ Ephtracy

# group
o 

# material
mtllib player.mtl
usemtl palette

# normals
vn -1 0 0
vn 1 0 0
vn 0 0 1
vn 0 0 -1
vn 0 -1 0
vn 0 1 0

# texcoords
vt 0.0332031 0.5
vt 0.0644531 0.5
vt 0.685547 0.5
vt 0.779297 0.5
vt 0.841797 0.5
vt 0.845703 0.5
vt 0.958984 0.5
vt 0.962891 0.5
vt 0.994141 0.5

# verts
v -0.6 0.4 0.5
v -0.6 0.4 0.3
v -0.6 0.4 0.2
v -0.6 0.4 0.1
v -0.6 0.4 -5.96046e-08
v -0.6 0.4 -0.1
v -0.6 0.5 0.5
v -0.6 0.5 0.3
v -0.6 0.6 0.3
v -0.6 0.6 0.2
v -0.6 0.7 0.5
v -0.6 0.7 0.3
v -0.6 1 0.2
v -0.6 1 0.1
v -0.6 1 -5.96046e-08
v -0.6 1 -0.1
v -0.5 0 0.4
v -0.5 0 0.1
v -0.5 0.1 0.4
v -0.5 0.1 0.3
v -0.5 0.1 0.1
v -0.5 0.3 0.3
v -0.5 0.3 0.1
v -0.5 0.3 -0.2
v -0.5 0.4 0.3
v -0.5 0.4 0.2
v -0.5 0.4 0.1
v -0.5 0.4 -5.96046e-08
v -0.5 0.4 -0.1
v -0.5 0.6 0.3
v -0.5 0.6 0.2
v -0.5 0.7 0.3
v -0.5 1 0.3
v -0.5 1 0.2
v -0.5 1 -0.1
v -0.5 1 -0.2
v -0.5 1.4 0.5
v -0.5 1.4 -0.3
v -0.5 1.8 0.5
v -0.5 1.8 -0.3
v -0.4 1 0.5
v -0.4 1 0.3
v -0.4 1 0.2
v -0.4 1 0.1
v -0.4 1 -5.96046e-08
v -0.4 1 -0.1
v -0.4 1 -0.2
v -0.4 1.4 0.5
v -0.4 1.4 -0.2
v -0.4 1.5 0.8
v -0.4 1.5 0.5
v -0.4 1.6 0.8
v -0.4 1.6 0.5
v -0.3 0.5 -0.2
v -0.3 0.5 -0.5
v -0.3 1 -0.2
v -0.3 1 -0.5
v -0.2 0.5 -0.5
v -0.2 0.5 -0.6
v -0.2 1 -0.5
v -0.2 1 -0.6
v -0.0999999 1.1 0.6
v -0.0999999 1.1 0.5
v -0.0999999 1.2 0.6
v -0.0999999 1.2 0.5
v 0.1 0.3 0.3
v 0.1 0.3 -0.2
v 0.1 0.4 0.3
v 0.1 0.4 0.2
v 0.1 0.4 -0.2
v 0.2 0 0.4
v 0.2 0 0.1
v 0.2 0.1 0.4
v 0.2 0.1 0.3
v 0.2 0.1 0.1
v 0.2 0.3 0.3
v 0.2 0.3 0.1
v 0.4 1.5 0.4
v 0.4 1.5 -0.2
v 0.4 1.6 0.4
v 0.4 1.6 -0.2
v 0.5 0.4 0.4
v 0.5 0.4 0.3
v 0.5 0.6 0.4
v 0.5 0.6 0.3
v -0.4 1.5 0.4
v -0.4 1.5 -0.2
v -0.4 1.6 0.4
v -0.4 1.6 -0.2
v -0.3 0.4 0.5
v -0.3 0.4 0.3
v -0.3 0.5 0.5
v -0.3 0.5 0.3
v -0.3 0.7 0.5
v -0.3 0.7 0.3
v -0.2 0 0.4
v -0.2 0 0.1
v -0.2 0.1 0.4
v -0.2 0.1 0.3
v -0.2 0.1 0.1
v -0.2 0.3 0.3
v -0.2 0.3 0.1
v -0.0999999 0.3 0.3
v -0.0999999 0.3 -0.2
v -0.0999999 0.4 0.3
v -0.0999999 0.4 0.2
v -0.0999999 0.4 -0.2
v 0.1 1.1 0.6
v 0.1 1.1 0.5
v 0.1 1.2 0.6
v 0.1 1.2 0.5
v 0.2 0.5 -0.5
v 0.2 0.5 -0.6
v 0.2 1 -0.5
v 0.2 1 -0.6
v 0.3 0.5 -0.2
v 0.3 0.5 -0.5
v 0.3 1 -0.2
v 0.3 1 -0.5
v 0.4 1 0.5
v 0.4 1 0.3
v 0.4 1 0.2
v 0.4 1 0.1
v 0.4 1 -5.96046e-08
v 0.4 1 -0.1
v 0.4 1 -0.2
v 0.4 1.4 0.5
v 0.4 1.4 -0.2
v 0.4 1.5 0.8
v 0.4 1.5 0.5
v 0.4 1.6 0.8
v 0.4 1.6 0.5
v 0.5 0 0.4
v 0.5 0 0.1
v 0.5 0.1 0.4
v 0.5 0.1 0.3
v 0.5 0.1 0.1
v 0.5 0.3 0.3
v 0.5 0.3 0.1
v 0.5 0.3 -0.2
v 0.5 0.4 0.3
v 0.5 0.4 0.2
v 0.5 0.4 0.1
v 0.5 0.4 -5.96046e-08
v 0.5 0.4 -0.1
v 0.5 0.6 0.3
v 0.5 0.6 0.2
v 0.5 1 0.3
v 0.5 1 0.2
v 0.5 1 -0.1
v 0.5 1 -0.2
v 0.5 1.4 0.5
v 0.5 1.4 -0.3
v 0.5 1.8 0.5
v 0.5 1.8 -0.3
v 0.6 0.4 0.4
v 0.6 0.4 0.2
v 0.6 0.4 0.1
v 0.6 0.4 -5.96046e-08
v 0.6 0.4 -0.1
v 0.6 0.6 0.4
v 0.6 0.6 0.2
v 0.6 1 0.2
v 0.6 1 0.1
v 0.6 1 -5.96046e-08
v 0.6 1 -0.1
v -0.4 1.5 0.8
v -0.4 1.6 0.8
v 0.4 1.5 0.8
v 0.4 1.6 0.8
v -0.0999999 1.1 0.6
v -0.0999999 1.2 0.6
v 0.1 1.1 0.6
v 0.1 1.2 0.6
v -0.6 0.4 0.5
v -0.6 0.5 0.5
v -0.6 0.7 0.5
v -0.5 0.5 0.5
v -0.5 0.6 0.5
v -0.5 1.4 0.5
v -0.5 1.8 0.5
v -0.4 0.5 0.5
v -0.4 0.6 0.5
v -0.4 1 0.5
v -0.4 1.4 0.5
v -0.4 1.5 0.5
v -0.4 1.6 0.5
v -0.3 0.4 0.5
v -0.3 0.5 0.5
v -0.3 0.7 0.5
v -0.3 1.2 0.5
v -0.3 1.4 0.5
v -0.3 1.6 0.5
v -0.3 1.8 0.5
v -0.2 1.6 0.5
v -0.2 1.8 0.5
v -0.0999999 1.1 0.5
v -0.0999999 1.2 0.5
v -0.0999999 1.4 0.5
v -0.0999999 1.6 0.5
v -0.0999999 1.7 0.5
v 0.1 1.1 0.5
v 0.1 1.2 0.5
v 0.1 1.4 0.5
v 0.1 1.6 0.5
v 0.1 1.7 0.5
v 0.2 1.6 0.5
v 0.2 1.8 0.5
v 0.3 1.2 0.5
v 0.3 1.4 0.5
v 0.3 1.6 0.5
v 0.3 1.8 0.5
v 0.4 1 0.5
v 0.4 1.4 0.5
v 0.4 1.5 0.5
v 0.4 1.6 0.5
v 0.5 1.4 0.5
v 0.5 1.8 0.5
v -0.5 0 0.4
v -0.5 0.1 0.4
v -0.2 0 0.4
v -0.2 0.1 0.4
v 0.2 0 0.4
v 0.2 0.1 0.4
v 0.5 0 0.4
v 0.5 0.1 0.4
v 0.5 0.4 0.4
v 0.5 0.6 0.4
v 0.6 0.4 0.4
v 0.6 0.6 0.4
v -0.5 0.1 0.3
v -0.5 0.3 0.3
v -0.5 0.4 0.3
v -0.5 0.7 0.3
v -0.5 1 0.3
v -0.4 0.1 0.3
v -0.4 0.3 0.3
v -0.4 1 0.3
v -0.3 0.1 0.3
v -0.3 0.3 0.3
v -0.3 0.4 0.3
v -0.3 0.5 0.3
v -0.3 0.7 0.3
v -0.3 0.8 0.3
v -0.3 1 0.3
v -0.2 0.1 0.3
v -0.2 0.3 0.3
v -0.2 0.4 0.3
v -0.2 0.8 0.3
v -0.0999999 0.3 0.3
v -0.0999999 0.4 0.3
v 0.1 0.3 0.3
v 0.1 0.4 0.3
v 0.2 0.1 0.3
v 0.2 0.3 0.3
v 0.2 0.4 0.3
v 0.2 0.8 0.3
v 0.3 0.1 0.3
v 0.3 0.3 0.3
v 0.3 0.8 0.3
v 0.3 1 0.3
v 0.4 0.1 0.3
v 0.4 0.3 0.3
v 0.4 1 0.3
v 0.5 0.1 0.3
v 0.5 0.3 0.3
v 0.5 0.4 0.3
v 0.5 0.6 0.3
v 0.5 1 0.3
v -0.6 0.6 0.2
v -0.6 1 0.2
v -0.5 0.6 0.2
v -0.5 1 0.2
v 0.5 0.6 0.2
v 0.5 1 0.2
v 0.6 0.6 0.2
v 0.6 1 0.2
v -0.4 1.5 -0.2
v -0.4 1.6 -0.2
v -0.3 1.6 -0.2
v -0.0999999 1.6 -0.2
v 0.1 1.6 -0.2
v 0.3 1.6 -0.2
v 0.4 1.5 -0.2
v 0.4 1.6 -0.2
v -0.4 1.5 0.4
v -0.4 1.6 0.4
v -0.3 1.5 0.4
v -0.3 1.6 0.4
v -0.0999999 1.6 0.4
v 0.1 1.6 0.4
v 0.3 1.5 0.4
v 0.3 1.6 0.4
v 0.4 1.5 0.4
v 0.4 1.6 0.4
v -0.6 0.6 0.3
v -0.6 0.7 0.3
v -0.5 0.6 0.3
v -0.5 0.7 0.3
v -0.5 0 0.1
v -0.5 0.1 0.1
v -0.5 0.3 0.1
v -0.4 0.1 0.1
v -0.4 0.3 0.1
v -0.3 0.1 0.1
v -0.3 0.3 0.1
v -0.2 0 0.1
v -0.2 0.1 0.1
v -0.2 0.3 0.1
v 0.2 0 0.1
v 0.2 0.1 0.1
v 0.2 0.3 0.1
v 0.3 0.1 0.1
v 0.3 0.3 0.1
v 0.4 0.1 0.1
v 0.4 0.3 0.1
v 0.5 0 0.1
v 0.5 0.1 0.1
v 0.5 0.3 0.1
v -0.6 0.4 -0.1
v -0.6 1 -0.1
v -0.5 0.4 -0.1
v -0.5 1 -0.1
v 0.5 0.4 -0.1
v 0.5 1 -0.1
v 0.6 0.4 -0.1
v 0.6 1 -0.1
v -0.5 0.3 -0.2
v -0.5 1 -0.2
v -0.4 1 -0.2
v -0.4 1.4 -0.2
v -0.3 0.5 -0.2
v -0.3 1 -0.2
v -0.0999999 0.3 -0.2
v -0.0999999 0.4 -0.2
v -0.0999999 0.5 -0.2
v 0.1 0.3 -0.2
v 0.1 0.4 -0.2
v 0.1 0.5 -0.2
v 0.1 1 -0.2
v 0.2 0.5 -0.2
v 0.2 1 -0.2
v 0.3 0.5 -0.2
v 0.3 1 -0.2
v 0.4 1 -0.2
v 0.4 1.4 -0.2
v 0.5 0.3 -0.2
v 0.5 1 -0.2
v -0.5 1.4 -0.3
v -0.5 1.8 -0.3
v -0.3 1.6 -0.3
v -0.3 1.8 -0.3
v -0.0999999 1.6 -0.3
v -0.0999999 1.8 -0.3
v 0.1 1.6 -0.3
v 0.1 1.8 -0.3
v 0.3 1.6 -0.3
v 0.3 1.8 -0.3
v 0.5 1.4 -0.3
v 0.5 1.8 -0.3
v -0.3 0.5 -0.5
v -0.3 1 -0.5
v -0.2 0.5 -0.5
v -0.2 1 -0.5
v 0.2 0.5 -0.5
v 0.2 1 -0.5
v 0.3 0.5 -0.5
v 0.3 1 -0.5
v -0.2 0.5 -0.6
v -0.2 1 -0.6
v 0.1 0.5 -0.6
v 0.1 1 -0.6
v 0.2 0.5 -0.6
v 0.2 1 -0.6
v -0.5 0 0.4
v -0.2 0 0.4
v 0.2 0 0.4
v 0.5 0 0.4
v -0.5 0 0.1
v -0.2 0 0.1
v 0.2 0 0.1
v 0.5 0 0.1
v -0.2 0.3 0.3
v -0.0999999 0.3 0.3
v 0.1 0.3 0.3
v 0.2 0.3 0.3
v -0.5 0.3 0.1
v -0.4 0.3 0.1
v -0.3 0.3 0.1
v -0.2 0.3 0.1
v 0.2 0.3 0.1
v 0.3 0.3 0.1
v 0.4 0.3 0.1
v 0.5 0.3 0.1
v -0.5 0.3 -0.2
v -0.0999999 0.3 -0.2
v 0.1 0.3 -0.2
v 0.5 0.3 -0.2
v -0.6 0.4 0.5
v -0.3 0.4 0.5
v 0.5 0.4 0.4
v 0.6 0.4 0.4
v -0.6 0.4 0.3
v -0.5 0.4 0.3
v -0.3 0.4 0.3
v -0.0999999 0.4 0.3
v 0.1 0.4 0.3
v 0.5 0.4 0.3
v -0.6 0.4 0.2
v -0.5 0.4 0.2
v -0.0999999 0.4 0.2
v 0.1 0.4 0.2
v 0.5 0.4 0.2
v 0.6 0.4 0.2
v -0.6 0.4 0.1
v -0.5 0.4 0.1
v 0.5 0.4 0.1
v 0.6 0.4 0.1
v -0.6 0.4 -5.96046e-08
v -0.5 0.4 -5.96046e-08
v 0.5 0.4 -5.96046e-08
v 0.6 0.4 -5.96046e-08
v -0.6 0.4 -0.1
v -0.5 0.4 -0.1
v 0.5 0.4 -0.1
v 0.6 0.4 -0.1
v -0.0999999 0.4 -0.2
v 0.1 0.4 -0.2
v -0.3 0.5 -0.2
v -0.0999999 0.5 -0.2
v 0.1 0.5 -0.2
v 0.2 0.5 -0.2
v 0.3 0.5 -0.2
v -0.3 0.5 -0.5
v -0.2 0.5 -0.5
v 0.2 0.5 -0.5
v 0.3 0.5 -0.5
v -0.2 0.5 -0.6
v 0.1 0.5 -0.6
v 0.2 0.5 -0.6
v -0.4 1 0.5
v 0.4 1 0.5
v -0.3 1 0.4
v 0.3 1 0.4
v -0.4 1 0.3
v -0.3 1 0.3
v 0.3 1 0.3
v 0.4 1 0.3
v -0.0999999 1.1 0.6
v 0.1 1.1 0.6
v -0.0999999 1.1 0.5
v 0.1 1.1 0.5
v -0.5 1.4 0.5
v -0.4 1.4 0.5
v 0.4 1.4 0.5
v 0.5 1.4 0.5
v -0.4 1.4 -0.2
v 0.4 1.4 -0.2
v -0.5 1.4 -0.3
v 0.5 1.4 -0.3
v -0.4 1.5 0.8
v 0.4 1.5 0.8
v -0.4 1.5 0.5
v 0.4 1.5 0.5
v -0.4 1.6 0.4
v -0.3 1.6 0.4
v -0.0999999 1.6 0.4
v 0.1 1.6 0.4
v 0.3 1.6 0.4
v 0.4 1.6 0.4
v -0.4 1.6 -0.2
v -0.3 1.6 -0.2
v -0.0999999 1.6 -0.2
v 0.1 1.6 -0.2
v 0.3 1.6 -0.2
v 0.4 1.6 -0.2
v -0.5 0.1 0.4
v -0.2 0.1 0.4
v 0.2 0.1 0.4
v 0.5 0.1 0.4
v -0.5 0.1 0.3
v -0.4 0.1 0.3
v -0.3 0.1 0.3
v -0.2 0.1 0.3
v 0.2 0.1 0.3
v 0.3 0.1 0.3
v 0.4 0.1 0.3
v 0.5 0.1 0.3
v 0.5 0.6 0.4
v 0.6 0.6 0.4
v -0.6 0.6 0.3
v -0.5 0.6 0.3
v 0.5 0.6 0.3
v -0.6 0.6 0.2
v -0.5 0.6 0.2
v 0.5 0.6 0.2
v 0.6 0.6 0.2
v -0.6 0.7 0.5
v -0.3 0.7 0.5
v -0.6 0.7 0.3
v -0.5 0.7 0.3
v -0.3 0.7 0.3
v -0.5 1 0.3
v -0.4 1 0.3
v 0.4 1 0.3
v 0.5 1 0.3
v -0.6 1 0.2
v -0.5 1 0.2
v -0.4 1 0.2
v 0.4 1 0.2
v 0.5 1 0.2
v 0.6 1 0.2
v -0.6 1 0.1
v -0.4 1 0.1
v 0.4 1 0.1
v 0.6 1 0.1
v -0.6 1 -5.96046e-08
v -0.4 1 -5.96046e-08
v 0.4 1 -5.96046e-08
v 0.6 1 -5.96046e-08
v -0.6 1 -0.1
v -0.5 1 -0.1
v -0.4 1 -0.1
v 0.4 1 -0.1
v 0.5 1 -0.1
v 0.6 1 -0.1
v -0.5 1 -0.2
v -0.4 1 -0.2
v -0.3 1 -0.2
v 0.1 1 -0.2
v 0.2 1 -0.2
v 0.3 1 -0.2
v 0.4 1 -0.2
v 0.5 1 -0.2
v -0.3 1 -0.5
v -0.2 1 -0.5
v 0.2 1 -0.5
v 0.3 1 -0.5
v -0.2 1 -0.6
v 0.1 1 -0.6
v 0.2 1 -0.6
v -0.0999999 1.2 0.6
v 0.1 1.2 0.6
v -0.0999999 1.2 0.5
v 0.1 1.2 0.5
v -0.4 1.5 0.4
v -0.3 1.5 0.4
v 0.3 1.5 0.4
v 0.4 1.5 0.4
v -0.4 1.5 -0.2
v 0.4 1.5 -0.2
v -0.4 1.6 0.8
v 0.4 1.6 0.8
v -0.4 1.6 0.5
v -0.3 1.6 0.5
v -0.2 1.6 0.5
v -0.0999999 1.6 0.5
v 0.1 1.6 0.5
v 0.2 1.6 0.5
v 0.3 1.6 0.5
v 0.4 1.6 0.5
v -0.5 1.8 0.5
v -0.3 1.8 0.5
v -0.2 1.8 0.5
v 0.2 1.8 0.5
v 0.3 1.8 0.5
v 0.5 1.8 0.5
v -0.2 1.8 0.4
v -0.0999999 1.8 0.4
v 0.1 1.8 0.4
v 0.2 1.8 0.4
v -0.5 1.8 -0.3
v -0.3 1.8 -0.3
v -0.0999999 1.8 -0.3
v 0.1 1.8 -0.3
v 0.3 1.8 -0.3
v 0.5 1.8 -0.3

# faces
f 7/7/1 2/7/1 1/7/1
f 8/1/1 3/1/1 2/1/1
f 8/7/1 2/7/1 7/7/1
f 9/5/1 8/5/1 7/5/1
f 9/1/1 3/1/1 8/1/1
f 10/3/1 4/3/1 3/3/1
f 10/1/1 3/1/1 9/1/1
f 11/5/1 9/5/1 7/5/1
f 12/5/1 9/5/1 11/5/1
f 13/3/1 4/3/1 10/3/1
f 14/4/1 5/4/1 4/4/1
f 14/3/1 4/3/1 13/3/1
f 15/3/1 6/3/1 5/3/1
f 15/4/1 5/4/1 14/4/1
f 16/3/1 6/3/1 15/3/1
f 19/3/1 18/3/1 17/3/1
f 20/3/1 18/3/1 19/3/1
f 21/3/1 18/3/1 20/3/1
f 22/9/1 21/9/1 20/9/1
f 23/9/1 21/9/1 22/9/1
f 25/6/1 23/6/1 22/6/1
f 25/6/1 24/6/1 23/6/1
f 26/6/1 24/6/1 25/6/1
f 27/6/1 24/6/1 26/6/1
f 28/6/1 24/6/1 27/6/1
f 29/6/1 24/6/1 28/6/1
f 32/6/1 31/6/1 30/6/1
f 33/6/1 31/6/1 32/6/1
f 34/6/1 31/6/1 33/6/1
f 35/6/1 24/6/1 29/6/1
f 36/6/1 24/6/1 35/6/1
f 39/5/1 38/5/1 37/5/1
f 40/5/1 38/5/1 39/5/1
f 48/1/1 42/1/1 41/1/1
f 48/1/1 47/1/1 46/1/1
f 48/1/1 46/1/1 45/1/1
f 48/1/1 45/1/1 44/1/1
f 48/1/1 44/1/1 43/1/1
f 48/1/1 43/1/1 42/1/1
f 49/1/1 47/1/1 48/1/1
f 52/5/1 51/5/1 50/5/1
f 53/5/1 51/5/1 52/5/1
f 56/2/1 55/2/1 54/2/1
f 57/2/1 55/2/1 56/2/1
f 60/2/1 59/2/1 58/2/1
f 61/2/1 59/2/1 60/2/1
f 64/1/1 63/1/1 62/1/1
f 65/1/1 63/1/1 64/1/1
f 68/6/1 67/6/1 66/6/1
f 69/6/1 67/6/1 68/6/1
f 70/6/1 67/6/1 69/6/1
f 73/3/1 72/3/1 71/3/1
f 74/3/1 72/3/1 73/3/1
f 75/3/1 72/3/1 74/3/1
f 76/9/1 75/9/1 74/9/1
f 77/9/1 75/9/1 76/9/1
f 80/5/1 79/5/1 78/5/1
f 81/5/1 79/5/1 80/5/1
f 84/1/1 83/1/1 82/1/1
f 85/1/1 83/1/1 84/1/1
f 86/5/2 87/5/2 88/5/2
f 88/5/2 87/5/2 89/5/2
f 90/7/2 91/7/2 92/7/2
f 92/7/2 91/7/2 93/7/2
f 92/5/2 93/5/2 94/5/2
f 94/5/2 93/5/2 95/5/2
f 96/3/2 97/3/2 98/3/2
f 98/3/2 97/3/2 99/3/2
f 99/3/2 97/3/2 100/3/2
f 99/9/2 100/9/2 101/9/2
f 101/9/2 100/9/2 102/9/2
f 103/6/2 104/6/2 105/6/2
f 105/6/2 104/6/2 106/6/2
f 106/6/2 104/6/2 107/6/2
f 108/1/2 109/1/2 110/1/2
f 110/1/2 109/1/2 111/1/2
f 112/9/2 113/9/2 114/9/2
f 114/9/2 113/9/2 115/9/2
f 116/2/2 117/2/2 118/2/2
f 118/2/2 117/2/2 119/2/2
f 120/1/2 121/1/2 127/1/2
f 125/1/2 126/1/2 127/1/2
f 124/1/2 125/1/2 127/1/2
f 123/1/2 124/1/2 127/1/2
f 122/1/2 123/1/2 127/1/2
f 121/1/2 122/1/2 127/1/2
f 127/1/2 126/1/2 128/1/2
f 129/5/2 130/5/2 131/5/2
f 131/5/2 130/5/2 132/5/2
f 133/3/2 134/3/2 135/3/2
f 135/3/2 134/3/2 136/3/2
f 136/3/2 134/3/2 137/3/2
f 136/9/2 137/9/2 138/9/2
f 138/9/2 137/9/2 139/9/2
f 138/6/2 139/6/2 141/6/2
f 139/6/2 140/6/2 141/6/2
f 141/6/2 140/6/2 142/6/2
f 142/6/2 140/6/2 143/6/2
f 143/6/2 140/6/2 144/6/2
f 144/6/2 140/6/2 145/6/2
f 146/6/2 147/6/2 148/6/2
f 148/6/2 147/6/2 149/6/2
f 145/6/2 140/6/2 150/6/2
f 150/6/2 140/6/2 151/6/2
f 152/5/2 153/5/2 154/5/2
f 154/5/2 153/5/2 155/5/2
f 156/1/2 157/1/2 161/1/2
f 157/3/2 158/3/2 162/3/2
f 161/1/2 157/1/2 162/1/2
f 162/3/2 158/3/2 163/3/2
f 158/4/2 159/4/2 164/4/2
f 163/3/2 158/3/2 164/3/2
f 159/3/2 160/3/2 165/3/2
f 164/4/2 159/4/2 165/4/2
f 165/3/2 160/3/2 166/3/2
f 169/5/3 168/5/3 167/5/3
f 170/5/3 168/5/3 169/5/3
f 173/1/3 172/1/3 171/1/3
f 174/1/3 172/1/3 173/1/3
f 178/7/3 176/7/3 175/7/3
f 178/5/3 177/5/3 176/5/3
f 179/5/3 177/5/3 178/5/3
f 182/7/3 178/7/3 175/7/3
f 182/9/3 179/9/3 178/9/3
f 183/5/3 177/5/3 179/5/3
f 183/9/3 179/9/3 182/9/3
f 185/5/3 181/5/3 180/5/3
f 186/5/3 181/5/3 185/5/3
f 187/5/3 181/5/3 186/5/3
f 188/7/3 182/7/3 175/7/3
f 189/5/3 183/5/3 182/5/3
f 189/7/3 182/7/3 188/7/3
f 190/5/3 177/5/3 183/5/3
f 190/5/3 183/5/3 189/5/3
f 191/1/3 185/1/3 184/1/3
f 192/5/3 186/5/3 185/5/3
f 192/1/3 185/1/3 191/1/3
f 193/5/3 181/5/3 187/5/3
f 194/5/3 181/5/3 193/5/3
f 195/9/3 194/9/3 193/9/3
f 196/9/3 194/9/3 195/9/3
f 197/1/3 191/1/3 184/1/3
f 198/9/3 192/9/3 191/9/3
f 198/1/3 191/1/3 197/1/3
f 199/5/3 186/5/3 192/5/3
f 199/9/3 192/9/3 198/9/3
f 200/7/3 196/7/3 195/7/3
f 201/7/3 196/7/3 200/7/3
f 202/1/3 197/1/3 184/1/3
f 203/1/3 199/1/3 198/1/3
f 204/5/3 186/5/3 199/5/3
f 204/1/3 199/1/3 203/1/3
f 205/5/3 201/5/3 200/5/3
f 206/7/3 196/7/3 201/7/3
f 206/5/3 201/5/3 205/5/3
f 207/7/3 206/7/3 205/7/3
f 208/7/3 196/7/3 206/7/3
f 208/7/3 206/7/3 207/7/3
f 209/1/3 203/1/3 202/1/3
f 209/9/3 204/9/3 203/9/3
f 210/5/3 186/5/3 204/5/3
f 210/9/3 204/9/3 209/9/3
f 211/9/3 208/9/3 207/9/3
f 212/9/3 208/9/3 211/9/3
f 213/1/3 209/1/3 202/1/3
f 213/1/3 202/1/3 184/1/3
f 213/1/3 210/1/3 209/1/3
f 214/5/3 186/5/3 210/5/3
f 214/1/3 210/1/3 213/1/3
f 215/5/3 186/5/3 214/5/3
f 216/5/3 212/5/3 211/5/3
f 217/5/3 215/5/3 214/5/3
f 217/5/3 216/5/3 215/5/3
f 218/5/3 212/5/3 216/5/3
f 218/5/3 216/5/3 217/5/3
f 221/3/3 220/3/3 219/3/3
f 222/3/3 220/3/3 221/3/3
f 225/3/3 224/3/3 223/3/3
f 226/3/3 224/3/3 225/3/3
f 229/1/3 228/1/3 227/1/3
f 230/1/3 228/1/3 229/1/3
f 236/9/3 232/9/3 231/9/3
f 237/6/3 233/6/3 232/6/3
f 237/9/3 232/9/3 236/9/3
f 238/6/3 235/6/3 234/6/3
f 239/4/3 237/4/3 236/4/3
f 240/6/3 233/6/3 237/6/3
f 240/4/3 237/4/3 239/4/3
f 241/6/3 233/6/3 240/6/3
f 243/6/3 238/6/3 234/6/3
f 244/6/3 238/6/3 243/6/3
f 245/6/3 238/6/3 244/6/3
f 246/9/3 240/9/3 239/9/3
f 247/6/3 242/6/3 241/6/3
f 247/9/3 240/9/3 246/9/3
f 247/6/3 241/6/3 240/6/3
f 247/6/3 243/6/3 242/6/3
f 247/6/3 244/6/3 243/6/3
f 248/6/3 244/6/3 247/6/3
f 249/9/3 245/9/3 244/9/3
f 249/6/3 244/6/3 248/6/3
f 250/6/3 248/6/3 247/6/3
f 251/8/3 249/8/3 248/8/3
f 251/6/3 248/6/3 250/6/3
f 253/8/3 249/8/3 251/8/3
f 255/6/3 253/6/3 252/6/3
f 256/8/3 249/8/3 253/8/3
f 256/6/3 253/6/3 255/6/3
f 257/9/3 245/9/3 249/9/3
f 257/8/3 249/8/3 256/8/3
f 258/9/3 255/9/3 254/9/3
f 259/6/3 256/6/3 255/6/3
f 259/9/3 255/9/3 258/9/3
f 259/6/3 257/6/3 256/6/3
f 260/9/3 245/9/3 257/9/3
f 260/6/3 257/6/3 259/6/3
f 261/9/3 245/9/3 260/9/3
f 262/4/3 259/4/3 258/4/3
f 263/6/3 260/6/3 259/6/3
f 263/4/3 259/4/3 262/4/3
f 263/6/3 261/6/3 260/6/3
f 264/6/3 261/6/3 263/6/3
f 265/9/3 263/9/3 262/9/3
f 266/6/3 264/6/3 263/6/3
f 266/9/3 263/9/3 265/9/3
f 267/6/3 264/6/3 266/6/3
f 268/6/3 264/6/3 267/6/3
f 269/6/3 264/6/3 268/6/3
f 272/3/3 271/3/3 270/3/3
f 273/3/3 271/3/3 272/3/3
f 276/3/3 275/3/3 274/3/3
f 277/3/3 275/3/3 276/3/3
f 280/5/3 279/5/3 278/5/3
f 281/5/3 280/5/3 278/5/3
f 282/5/3 281/5/3 278/5/3
f 283/5/3 282/5/3 278/5/3
f 284/5/3 283/5/3 278/5/3
f 285/5/3 283/5/3 284/5/3
f 286/5/4 287/5/4 288/5/4
f 288/5/4 287/5/4 289/5/4
f 288/7/4 289/7/4 290/7/4
f 288/7/4 290/7/4 291/7/4
f 288/7/4 291/7/4 292/7/4
f 292/7/4 291/7/4 293/7/4
f 292/5/4 293/5/4 294/5/4
f 294/5/4 293/5/4 295/5/4
f 296/5/4 297/5/4 298/5/4
f 298/5/4 297/5/4 299/5/4
f 300/3/4 301/3/4 303/3/4
f 301/9/4 302/9/4 303/9/4
f 303/9/4 302/9/4 304/9/4
f 300/3/4 303/3/4 305/3/4
f 303/7/4 304/7/4 305/7/4
f 305/7/4 304/7/4 306/7/4
f 300/3/4 305/3/4 307/3/4
f 305/9/4 306/9/4 308/9/4
f 307/3/4 305/3/4 308/3/4
f 308/9/4 306/9/4 309/9/4
f 310/3/4 311/3/4 313/3/4
f 311/9/4 312/9/4 313/9/4
f 313/9/4 312/9/4 314/9/4
f 310/3/4 313/3/4 315/3/4
f 313/7/4 314/7/4 315/7/4
f 315/7/4 314/7/4 316/7/4
f 310/3/4 315/3/4 317/3/4
f 315/9/4 316/9/4 318/9/4
f 317/3/4 315/3/4 318/3/4
f 318/9/4 316/9/4 319/9/4
f 320/3/4 321/3/4 322/3/4
f 322/3/4 321/3/4 323/3/4
f 324/3/4 325/3/4 326/3/4
f 326/3/4 325/3/4 327/3/4
f 328/6/4 329/6/4 330/6/4
f 328/6/4 330/6/4 332/6/4
f 330/1/4 331/1/4 333/1/4
f 332/6/4 330/6/4 333/6/4
f 328/6/4 332/6/4 334/6/4
f 334/6/4 332/6/4 335/6/4
f 335/6/4 332/6/4 336/6/4
f 335/7/4 336/7/4 338/7/4
f 338/7/4 336/7/4 339/7/4
f 333/1/4 331/1/4 340/1/4
f 338/6/4 339/6/4 341/6/4
f 337/6/4 338/6/4 341/6/4
f 340/1/4 331/1/4 342/1/4
f 337/6/4 341/6/4 343/6/4
f 342/1/4 331/1/4 344/1/4
f 344/1/4 331/1/4 345/1/4
f 343/6/4 344/6/4 345/6/4
f 345/1/4 331/1/4 346/1/4
f 337/6/4 343/6/4 347/6/4
f 343/6/4 345/6/4 347/6/4
f 347/6/4 345/6/4 348/6/4
f 349/5/4 350/5/4 351/5/4
f 351/5/4 350/5/4 352/5/4
f 349/5/4 351/5/4 353/5/4
f 351/9/4 352/9/4 353/9/4
f 353/9/4 352/9/4 354/9/4
f 349/5/4 353/5/4 355/5/4
f 353/5/4 354/5/4 355/5/4
f 355/5/4 354/5/4 356/5/4
f 349/5/4 355/5/4 357/5/4
f 355/9/4 356/9/4 357/9/4
f 357/9/4 356/9/4 358/9/4
f 349/5/4 357/5/4 359/5/4
f 357/5/4 358/5/4 359/5/4
f 359/5/4 358/5/4 360/5/4
f 361/2/4 362/2/4 363/2/4
f 363/2/4 362/2/4 364/2/4
f 365/2/4 366/2/4 367/2/4
f 367/2/4 366/2/4 368/2/4
f 369/2/4 370/2/4 371/2/4
f 371/2/4 370/2/4 372/2/4
f 371/9/4 372/9/4 373/9/4
f 373/9/4 372/9/4 374/9/4
f 379/3/5 376/3/5 375/3/5
f 380/3/5 376/3/5 379/3/5
f 381/3/5 378/3/5 377/3/5
f 382/3/5 378/3/5 381/3/5
f 390/6/5 384/6/5 383/6/5
f 391/6/5 386/6/5 385/6/5
f 395/6/5 389/6/5 388/6/5
f 395/6/5 390/6/5 389/6/5
f 395/6/5 388/6/5 387/6/5
f 396/6/5 384/6/5 390/6/5
f 396/6/5 390/6/5 395/6/5
f 397/6/5 394/6/5 393/6/5
f 397/6/5 393/6/5 392/6/5
f 397/6/5 391/6/5 385/6/5
f 397/6/5 392/6/5 391/6/5
f 398/6/5 394/6/5 397/6/5
f 403/7/5 400/7/5 399/7/5
f 404/7/5 400/7/5 403/7/5
f 405/7/5 400/7/5 404/7/5
f 408/1/5 402/1/5 401/1/5
f 409/1/5 404/1/5 403/1/5
f 410/1/5 404/1/5 409/1/5
f 411/8/5 407/8/5 406/8/5
f 412/8/5 407/8/5 411/8/5
f 413/1/5 402/1/5 408/1/5
f 414/1/5 402/1/5 413/1/5
f 415/3/5 410/3/5 409/3/5
f 416/3/5 410/3/5 415/3/5
f 417/3/5 414/3/5 413/3/5
f 418/3/5 414/3/5 417/3/5
f 419/4/5 416/4/5 415/4/5
f 420/4/5 416/4/5 419/4/5
f 421/4/5 418/4/5 417/4/5
f 422/4/5 418/4/5 421/4/5
f 423/3/5 420/3/5 419/3/5
f 424/3/5 420/3/5 423/3/5
f 425/3/5 422/3/5 421/3/5
f 426/3/5 422/3/5 425/3/5
f 427/7/5 412/7/5 411/7/5
f 428/7/5 412/7/5 427/7/5
f 434/2/5 430/2/5 429/2/5
f 434/2/5 431/2/5 430/2/5
f 435/2/5 431/2/5 434/2/5
f 436/2/5 433/2/5 432/2/5
f 436/9/5 432/9/5 431/9/5
f 437/2/5 433/2/5 436/2/5
f 438/2/5 431/2/5 435/2/5
f 439/9/5 436/9/5 431/9/5
f 439/2/5 431/2/5 438/2/5
f 440/9/5 436/9/5 439/9/5
f 443/1/5 442/1/5 441/1/5
f 444/1/5 442/1/5 443/1/5
f 445/1/5 443/1/5 441/1/5
f 446/7/5 444/7/5 443/7/5
f 446/1/5 443/1/5 445/1/5
f 447/1/5 442/1/5 444/1/5
f 447/7/5 444/7/5 446/7/5
f 448/1/5 442/1/5 447/1/5
f 451/1/5 450/1/5 449/1/5
f 452/1/5 450/1/5 451/1/5
f 457/5/5 454/5/5 453/5/5
f 458/5/5 456/5/5 455/5/5
f 459/5/5 457/5/5 453/5/5
f 459/5/5 458/5/5 457/5/5
f 460/5/5 456/5/5 458/5/5
f 460/5/5 458/5/5 459/5/5
f 463/5/5 462/5/5 461/5/5
f 464/5/5 462/5/5 463/5/5
f 471/5/5 466/5/5 465/5/5
f 472/9/5 467/9/5 466/9/5
f 472/5/5 466/5/5 471/5/5
f 473/5/5 468/5/5 467/5/5
f 473/9/5 467/9/5 472/9/5
f 474/9/5 469/9/5 468/9/5
f 474/5/5 468/5/5 473/5/5
f 475/5/5 470/5/5 469/5/5
f 475/9/5 469/9/5 474/9/5
f 476/5/5 470/5/5 475/5/5
f 477/3/6 478/3/6 481/3/6
f 481/3/6 478/3/6 482/3/6
f 482/3/6 478/3/6 483/3/6
f 483/3/6 478/3/6 484/3/6
f 479/3/6 480/3/6 485/3/6
f 485/3/6 480/3/6 486/3/6
f 486/3/6 480/3/6 487/3/6
f 487/3/6 480/3/6 488/3/6
f 489/1/6 490/1/6 493/1/6
f 491/1/6 492/1/6 494/1/6
f 494/1/6 492/1/6 495/1/6
f 493/1/6 490/1/6 496/1/6
f 496/1/6 490/1/6 497/1/6
f 498/5/6 499/5/6 500/5/6
f 500/5/6 499/5/6 501/5/6
f 501/5/6 499/5/6 502/5/6
f 503/6/6 504/6/6 508/6/6
f 508/6/6 504/6/6 509/6/6
f 505/6/6 506/6/6 510/6/6
f 510/6/6 506/6/6 511/6/6
f 508/3/6 509/3/6 513/3/6
f 507/3/6 508/3/6 513/3/6
f 513/3/6 509/3/6 514/3/6
f 511/3/6 512/3/6 515/3/6
f 510/3/6 511/3/6 515/3/6
f 515/3/6 512/3/6 516/3/6
f 513/4/6 514/4/6 517/4/6
f 517/4/6 514/4/6 518/4/6
f 515/4/6 516/4/6 519/4/6
f 519/4/6 516/4/6 520/4/6
f 517/3/6 518/3/6 521/3/6
f 521/3/6 518/3/6 522/3/6
f 522/3/6 518/3/6 523/3/6
f 519/3/6 520/3/6 524/3/6
f 524/3/6 520/3/6 525/3/6
f 525/3/6 520/3/6 526/3/6
f 522/6/6 523/6/6 527/6/6
f 527/6/6 523/6/6 528/6/6
f 524/6/6 525/6/6 533/6/6
f 533/6/6 525/6/6 534/6/6
f 529/2/6 530/2/6 535/2/6
f 535/2/6 530/2/6 536/2/6
f 531/2/6 532/2/6 537/2/6
f 530/9/6 531/9/6 537/9/6
f 537/2/6 532/2/6 538/2/6
f 536/2/6 530/2/6 539/2/6
f 530/9/6 537/9/6 540/9/6
f 539/2/6 530/2/6 540/2/6
f 540/9/6 537/9/6 541/9/6
f 542/1/6 543/1/6 544/1/6
f 544/1/6 543/1/6 545/1/6
f 546/5/6 547/5/6 550/5/6
f 548/5/6 549/5/6 550/5/6
f 547/5/6 548/5/6 550/5/6
f 550/5/6 549/5/6 551/5/6
f 552/5/6 553/5/6 554/5/6
f 554/5/6 553/5/6 555/5/6
f 555/5/6 553/5/6 556/5/6
f 556/5/6 553/5/6 557/5/6
f 557/5/6 553/5/6 558/5/6
f 558/5/6 553/5/6 559/5/6
f 559/5/6 553/5/6 560/5/6
f 560/5/6 553/5/6 561/5/6
f 563/9/6 564/9/6 568/9/6
f 564/7/6 565/7/6 568/7/6
f 568/7/6 565/7/6 569/7/6
f 569/7/6 565/7/6 570/7/6
f 565/9/6 566/9/6 571/9/6
f 570/7/6 565/7/6 571/7/6
f 562/5/6 563/5/6 572/5/6
f 563/9/6 568/9/6 573/9/6
f 572/5/6 563/5/6 573/5/6
f 568/9/6 569/9/6 573/9/6
f 569/5/6 570/5/6 574/5/6
f 573/9/6 569/9/6 574/9/6
f 570/9/6 571/9/6 575/9/6
f 574/5/6 570/5/6 575/5/6
f 571/9/6 566/9/6 576/9/6
f 575/9/6 571/9/6 576/9/6
f 566/5/6 567/5/6 576/5/6
f 576/5/6 567/5/6 577/5/6
